<?xml version="1.0" encoding="UTF-8"?>
<svg id="Camada_1" xmlns="http://www.w3.org/2000/svg" version="1.1" xmlns:cc="http://creativecommons.org/ns#" xmlns:dc="http://purl.org/dc/elements/1.1/" xmlns:rdf="http://www.w3.org/1999/02/22-rdf-syntax-ns#" viewBox="0 0 184.3 125.5">
  <!-- Generator: Adobe Illustrator 29.6.1, SVG Export Plug-In . SVG Version: 2.1.1 Build 9)  -->
  <defs>
    <style>
      .st0 {
        fill: #9e9e9e;
      }
    </style>
  </defs>
  <path class="st0" d="M75.15,82.9c-2.9,15.75-6.71,27.21-11.46,34.33-3.69,5.5-7.74,8.26-12.15,8.26-1.17,0-2.62-.35-4.34-1.06v-3.8c.84.12,1.83.19,2.96.19,2.06,0,3.71-.57,4.97-1.71,1.51-1.39,2.26-2.94,2.26-4.67,0-1.18-.59-3.6-1.76-7.26l-7.8-24.3h6.99l5.6,18.17c1.26,4.13,1.78,7.01,1.57,8.65,3.06-8.2,5.2-17.14,6.42-26.81h6.73M44.31,114.33h-7.11c-.25-12.03-.94-23.35-2.08-33.95h-.06l-10.83,33.95h-5.41l-10.76-33.95h-.06c-.8,10.18-1.3,21.49-1.51,33.95H0c.42-15.15,1.47-29.34,3.14-42.59h8.81l10.26,31.29h.06l10.32-31.29h8.43c1.85,15.52,2.94,29.72,3.27,42.59"/>
  <path class="st0" d="M169.81,114.32h-20.2v-42.59h6.8v37.35h13.4v5.24M119.01,105.8c-1.72-2.78-2.58-7.23-2.58-13.38,0-10.73,3.25-16.09,9.76-16.09,3.4,0,5.9,1.28,7.49,3.85,1.72,2.78,2.58,7.2,2.58,13.25,0,10.81-3.25,16.22-9.76,16.22-3.4,0-5.9-1.28-7.49-3.85M144.31,115.35l-7.81-3.86c.7-.57,1.36-1.19,1.95-1.9,3.32-3.91,4.97-9.69,4.97-17.35,0-14.09-5.52-21.14-16.55-21.14-5.41,0-9.63,1.79-12.65,5.37-3.32,3.91-4.97,9.68-4.97,17.29s1.47,12.98,4.4,16.47c2.68,3.15,6.72,4.73,12.14,4.73,2.02,0,3.88-.25,5.56-.75l10.17,5.93,2.77-4.79M106.29,102.51c0,3.61-1.32,6.58-3.96,8.9-2.64,2.31-6.19,3.47-10.63,3.47-4.16,0-8.18-1.33-12.08-3.98l1.83-3.66c3.36,1.68,6.4,2.52,9.12,2.52,2.56,0,4.56-.57,6.01-1.7,1.45-1.14,2.31-2.72,2.31-4.73,0-2.53-1.76-4.69-4.99-6.5-2.98-1.64-8.93-5.06-8.93-5.06-3.23-2.36-4.84-4.89-4.84-9.06,0-3.45,1.21-6.24,3.62-8.36,2.41-2.13,5.53-3.19,9.35-3.19s7.53,1.06,10.76,3.16l-1.64,3.66c-2.76-1.17-5.49-1.76-8.18-1.76-2.18,0-3.86.53-5.03,1.58-1.18,1.05-1.91,2.39-1.91,4.04,0,2.52,1.8,4.71,5.12,6.56,3.02,1.64,9.12,5.13,9.12,5.13,3.32,2.36,4.97,4.87,4.97,9.01"/>
  <path class="st0" d="M174.65,114.32h1.13v-4.33h1.47v-.89h-4.13v.89h1.53v4.33ZM183.22,114.32h1.06v-5.22h-1.6l-1.3,3.56-1.41-3.56h-1.54v5.22h1v-3.97h.06l1.48,3.97h.77l1.48-3.97v3.97"/>
  <path class="st0" d="M113.3,0c-1.8-.03-3.36.65-4.17,2.64-1.39,3.35,2.05,6.64,3.24,8.34.87,1.18,2,2.52,2.61,3.86.36.88.46,1.8.82,2.73.82,2.26,1.59,4.79,2.67,6.9.56,1.08,1.18,2.21,1.9,3.19.41.57,1.13.82,1.29,1.75-.72,1.03-.77,2.57-1.18,3.86-1.85,5.82-1.13,13.02,1.49,17.29.82,1.29,2.77,4.12,5.39,3.04,2.31-.92,1.8-3.86,2.46-6.43.15-.62.05-1.03.36-1.44v.1c.72,1.44,1.44,2.83,2.11,4.27,1.59,2.52,4.36,5.14,6.67,6.89,1.23.93,2.2,2.52,3.74,3.09v-.16h-.1c-.31-.46-.77-.67-1.18-1.03-.92-.93-1.95-2.06-2.67-3.09-2.16-2.88-4.06-6.07-5.75-9.37-.82-1.6-1.54-3.35-2.21-4.94-.31-.61-.31-1.54-.82-1.85-.77,1.13-1.9,2.11-2.46,3.49-.98,2.22-1.08,4.94-1.44,7.77-.2.05-.1,0-.2.1-1.64-.41-2.21-2.11-2.82-3.55-1.54-3.66-1.8-9.53-.46-13.75.36-1.08,1.9-4.47,1.28-5.51-.31-.98-1.34-1.54-1.9-2.32-.67-.98-1.39-2.21-1.85-3.29-1.23-2.88-1.85-6.07-3.18-8.95-.62-1.34-1.7-2.73-2.57-3.96-.98-1.39-2.05-2.37-2.83-4.01-.25-.57-.61-1.49-.2-2.11.1-.41.31-.57.72-.67.66-.57,2.56.15,3.23.46,1.9.77,3.49,1.49,5.08,2.57.72.52,1.49,1.49,2.41,1.75h1.08c1.64.36,3.49.1,5.03.56,2.72.87,5.18,2.16,7.39,3.55,6.72,4.27,12.27,10.35,16.01,17.6.62,1.18.88,2.26,1.44,3.5,1.08,2.53,2.41,5.1,3.49,7.57,1.08,2.42,2.11,4.89,3.65,6.9.77,1.08,3.85,1.65,5.23,2.21,1.02.46,2.62.87,3.54,1.44,1.75,1.08,3.49,2.32,5.13,3.5.82.62,3.39,1.9,3.54,2.93h0c-4.11-.1-7.29.31-9.96,1.44-.77.31-2,.31-2.11,1.29.41.41.46,1.08.83,1.65.61,1.03,1.69,2.42,2.67,3.14,1.08.82,2.16,1.64,3.29,2.36,2,1.24,4.26,1.96,6.21,3.19,1.13.72,2.26,1.65,3.39,2.42.56.41.92,1.08,1.64,1.34v-.16c-.36-.46-.46-1.13-.82-1.65-.51-.51-1.03-.98-1.54-1.49-1.49-2.01-3.34-3.76-5.34-5.2-1.64-1.14-5.24-2.68-5.9-4.58,0,0-.05-.05-.1-.1,1.13-.1,2.47-.52,3.54-.83,1.74-.46,3.33-.36,5.13-.82.82-.21,1.64-.47,2.47-.72v-.47c-.93-.92-1.59-2.16-2.57-3.04-2.61-2.26-5.49-4.47-8.47-6.33-1.59-1.03-3.65-1.7-5.34-2.57-.61-.31-1.64-.46-2-.98-.92-1.13-1.44-2.62-2.11-3.96-1.49-2.83-2.93-5.97-4.21-8.96-.92-2.01-1.49-4.01-2.62-5.87-5.29-8.75-11.04-14.05-19.87-19.25-1.9-1.08-4.16-1.54-6.57-2.11-1.29-.05-2.57-.15-3.85-.2-.82-.36-1.65-1.34-2.36-1.8C119.94,2.04,116.3.04,113.31,0h0ZM125.97,12.72c-.87,0-1.49.11-2.11.26v.1h.1c.41.82,1.13,1.39,1.64,2.11.41.82.77,1.64,1.18,2.47.05-.05.1-.1.1-.1.72-.51,1.08-1.34,1.08-2.57-.31-.36-.36-.72-.62-1.08-.31-.51-.98-.77-1.39-1.18h0Z"/>
</svg>