<?xml version="1.0" encoding="UTF-8"?>
<svg id="Camada_1" xmlns="http://www.w3.org/2000/svg" version="1.1" viewBox="0 0 800 800">
  <!-- Generator: Adobe Illustrator 29.6.1, SVG Export Plug-In . SVG Version: 2.1.1 Build 9)  -->
  <defs>
    <style>
      .st0 {
        fill: #9e9e9e;
      }
    </style>
  </defs>
  <path class="st0" d="M373.8.22c-1.72.16-7.19.7-12.12,1.09C248.05,11.55,141.62,72.85,74.21,167.07,36.68,219.46,12.67,278.88,3.6,341.83c-3.21,21.97-3.6,28.46-3.6,58.25s.39,36.28,3.6,58.25c21.74,150.2,128.64,276.4,273.63,323.16,25.96,8.37,53.33,14.07,84.46,17.51,12.12,1.33,64.52,1.33,76.64,0,53.72-5.94,99.24-19.23,144.13-42.14,6.88-3.52,8.21-4.46,7.27-5.24-.63-.47-29.95-39.8-65.14-87.34l-63.97-86.4-80.16-118.61c-44.11-65.21-80.39-118.54-80.7-118.54-.31-.08-.63,52.62-.78,116.97-.23,112.67-.31,117.21-1.72,119.87-2.03,3.83-3.6,5.4-6.88,7.12-2.5,1.25-4.69,1.49-16.5,1.49h-13.53l-3.6-2.27c-2.35-1.49-4.07-3.44-5.24-5.71l-1.64-3.52.16-156.77.23-156.85,2.42-3.05c1.25-1.64,3.91-3.75,5.79-4.77,3.21-1.56,4.46-1.72,17.99-1.72,15.95,0,18.61.63,22.76,5.16,1.17,1.25,44.57,66.62,96.5,145.35,51.93,78.74,122.93,186.25,157.81,239.03l63.34,95.94,3.21-2.11c28.39-18.45,58.42-44.72,82.19-72.09,50.6-58.1,83.21-128.94,94.15-204.47,3.21-21.97,3.6-28.46,3.6-58.25s-.39-36.28-3.6-58.25c-21.74-150.2-128.64-276.4-273.63-323.16-25.57-8.29-52.79-14-83.28-17.44-7.51-.78-59.2-1.64-65.69-1.02h0ZM537.56,242.13c3.75,1.88,6.8,5.47,7.9,9.23.63,2.03.78,45.51.63,143.48l-.23,140.59-24.79-38-24.87-38v-102.19c0-66.07.31-103.21.78-105.01,1.25-4.38,3.99-7.82,7.74-9.85,3.21-1.64,4.38-1.8,16.66-1.8,11.57,0,13.61.16,16.19,1.56Z"/>
</svg>