<?xml version="1.0" encoding="UTF-8"?>
<svg id="svg3030" xmlns="http://www.w3.org/2000/svg" version="1.1" xmlns:svg="http://www.w3.org/2000/svg" viewBox="0 0 184.34 101.71">
  <!-- Generator: Adobe Illustrator 29.6.1, SVG Export Plug-In . SVG Version: 2.1.1 Build 9)  -->
  <defs>
    <style>
      .st0 {
        fill: #9e9e9e;
        fill-rule: evenodd;
      }
    </style>
  </defs>
  <path class="st0" d="M44.07.55c-.75.03-1.46.16-2.14.55L2.38,23.94c-1.47.85-2.38,2.4-2.38,4.12l.08,61.28c0,.85.44,1.64,1.19,2.06.73.44,1.65.44,2.38,0l23.46-13.48c1.49-.88,2.46-2.42,2.46-4.12v-28.62c0-1.71.9-3.27,2.38-4.12l9.99-5.79c.75-.43,1.55-.63,2.38-.63s1.65.2,2.38.63l9.99,5.79c1.48.85,2.38,2.42,2.38,4.12v28.62c0,1.7.98,3.25,2.46,4.12l23.46,13.48c.74.44,1.65.44,2.38,0,.73-.42,1.19-1.21,1.19-2.06l.08-61.28c0-1.72-.89-3.27-2.38-4.12L46.69,1.11c-.67-.39-1.38-.52-2.14-.55h-.48Z"/>
  <g>
    <path class="st0" d="M139.24,0c-1.37,0-2.7.28-3.88.95l-37.34,21.56c-2.42,1.39-3.88,4.02-3.88,6.82v43.04c0,2.8,1.47,5.42,3.88,6.82l9.75,5.63c4.74,2.33,6.48,2.3,8.64,2.3,7.01,0,11.02-4.26,11.02-11.65v-42.49c0-.6-.52-1.03-1.11-1.03h-4.68c-.6,0-1.11.43-1.11,1.03v42.49c0,3.28-3.42,6.58-8.96,3.81l-10.15-5.95c-.36-.2-.63-.54-.63-.95V29.33c0-.41.27-.82.63-1.03l37.26-21.48c.35-.2.76-.2,1.11,0l37.26,21.48c.36.21.63.61.63,1.03v43.04c0,.41-.21.83-.55,1.03l-37.34,21.48c-.32.19-.76.19-1.11,0l-9.59-5.71c-.29-.17-.68-.15-.95,0-2.65,1.5-3.15,1.68-5.63,2.54-.61.21-1.54.54.32,1.59l12.52,7.37c1.19.69,2.52,1.03,3.88,1.03s2.69-.34,3.88-1.03l37.34-21.48c2.42-1.41,3.88-4.02,3.88-6.82V29.33c0-2.8-1.47-5.42-3.88-6.82L143.12.95c-1.17-.67-2.51-.95-3.88-.95h0Z"/>
    <path class="st0" d="M149.23,30.76c-10.63,0-16.96,4.52-16.96,12.05,0,8.16,6.28,10.41,16.49,11.42,12.21,1.2,13.16,2.99,13.16,5.39,0,4.17-3.32,5.95-11.18,5.95-9.87,0-12.04-2.46-12.76-7.37-.09-.53-.49-.95-1.03-.95h-4.84c-.6,0-1.11.51-1.11,1.11,0,6.28,3.42,13.71,19.74,13.71,11.81,0,18.63-4.64,18.63-12.76s-5.5-10.22-16.96-11.73c-11.58-1.53-12.68-2.28-12.68-4.99,0-2.24.94-5.23,9.51-5.23,7.66,0,10.49,1.65,11.65,6.82.1.49.53.87,1.03.87h4.84c.3,0,.59-.18.79-.4.2-.23.35-.49.32-.79-.75-8.9-6.68-13.08-18.63-13.08h0v-.02h0Z"/>
  </g>
</svg>