<?xml version="1.0" encoding="UTF-8"?>
<svg id="Camada_1" xmlns="http://www.w3.org/2000/svg" version="1.1" viewBox="0 0 432.07 445.38">
  <!-- Generator: Adobe Illustrator 29.6.1, SVG Export Plug-In . SVG Version: 2.1.1 Build 9)  -->
  <defs>
    <style>
      .st0 {
        fill: none;
        stroke: #fff;
        stroke-linecap: round;
        stroke-linejoin: round;
        stroke-width: 3px;
      }

      .st1 {
        fill: #9e9e9e;
      }
    </style>
  </defs>
  <g>
    <path class="st1" d="M188.49,242.43l.92-2.48c1.19-3.21,2.58-6.31,4.06-9.59,7.16-15.92,16.08-35.74,5.8-83.27-1.98-9.18-6.76-14.51-14.6-16.31-17.17-3.93-41.26,8.97-46.46,13.58.04,1.05.12,2.36.21,3.87.64,10.76,1.82,30.78-1.39,53.77-2.29,16.42,2.72,32.44,13.76,43.96h.01c8.68,9.05,20.1,14.06,31.83,14.1,1.35-5.53,3.52-11.36,5.86-17.63ZM181.49,149.92c-5.25-.73-9.27-6.17-8.98-8.21.28-2.04,4.76-3.1,10-2.37,5.25.73,9.26,2.97,8.98,5.01h0c-.29,2.05-4.77,6.3-10,5.57Z"/>
    <path class="st1" d="M202.58,276.1c-3.39-1.4-5.25-2.18-9.33,2.39-2.74,3.05-4.72,5.57-6.46,7.78-7.61,9.66-11.09,12.94-33.65,17.58-4.66.96-7.35,1.93-8.86,2.64,1.81,1.24,4.89,2.72,8.32,3.58h.01c16.63,4.16,39.79,4.44,55.68-17.81,1.88-2.63,1.3-6.02.79-7.81-1.09-3.78-3.76-7.21-6.5-8.35Z"/>
    <path class="st1" d="M342.68,146.47c.9-5.84,1.75-11.44,1.85-17.61-14.72-1.81-31.62-1.4-38.29,8.14-12.98,18.55,12.37,64,23.19,83.41,2.79,4.98,4.79,8.59,5.72,10.83,1.03,2.48,2.14,4.73,3.3,6.78,7.45-15.84,5.52-31.9,3.65-47.49-.93-7.72-1.89-15.7-1.64-23.38.25-7.89,1.25-14.39,2.22-20.68ZM322.97,145.76c-5.24.73-9.72-3.52-10.01-5.56-.28-2.04,3.74-4.29,8.98-5.02h.01c5.24-.73,9.72.34,10,2.37.28,2.04-3.74,7.48-8.98,8.21Z"/>
    <path class="st1" d="M326.76,64.09c19.85,23.12,29.6,48.66,30.4,57.19.12,1.3.02,2.41-.21,3.34.31,8.9-.83,16.44-1.95,23.74-.91,5.92-1.85,12.04-2.08,19.18-.21,6.73.65,13.9,1.56,21.49,2.22,18.5,4.72,39.36-8.05,60.45.21.26.41.52.62.78.51.64,1.01,1.27,1.5,1.89,49.41-77.75,66.48-167.88,50.98-187.69-20.21-25.82-48.76-39.32-84.84-40.12h.01c-14.25-.31-26.97,1.49-36.27,3.42,21.63,9.54,37.47,23.69,48.33,36.33Z"/>
    <path class="st1" d="M124.67,200.29c3.04-21.77,1.9-40.99,1.29-51.31-.16-2.82-.28-4.87-.28-6.32-.09-3.75-.93-65.15,34.65-101.08.31-.32.64-.6.95-.91-21.68-7.06-75.64-21-108.46,2.28-20.16,14.3-29.42,40.91-27.51,79.1.6,12.08,8.24,55.14,21.31,97.96,15.11,49.5,32.24,80.7,47.01,85.63,2.27.76,9.16,3.06,19.14-8.94h-.02c14.1-16.95,27.35-31.39,33.45-37.92-1.53-1.31-3.01-2.7-4.43-4.18-13.7-14.29-19.93-34.09-17.1-54.31Z"/>
    <path class="st1" d="M431.34,266.78c-1.49-4.52-8.28-18.89-32.71-13.85-9.8,2.02-17.07,2.79-22.37,2.94,20.02-33.81,36.3-72.35,45.67-108.64,8.36-32.38,14.73-75.58-2.41-97.49C394.47,17.74,357.93.55,313.85.02c-23.52-.29-44.16,4.35-54.93,7.69-10.03-1.77-20.81-2.76-32.12-2.94-21.2-.34-39.94,4.28-55.95,13.78-8.87-3-23.09-7.22-39.52-9.92-38.64-6.34-69.77-1.4-92.55,14.69C11.2,42.8-1.58,76.65.78,123.93c.75,15.01,9.15,60.67,22.36,103.97,7.6,24.89,15.7,45.57,24.08,61.45,11.89,22.52,24.6,35.79,38.88,40.55,7.99,2.66,22.51,4.53,37.79-8.17,5.54,6.66,14.43,10.99,23.01,13.14,19.18,4.8,37.15,3.6,52.48-3.12.09,2.73.17,5.33.23,7.58.11,3.65.21,7.22.34,10.57.91,22.63,2.45,40.21,7.01,52.52.25.68.58,1.71.94,2.8,2.28,6.97,6.08,18.63,15.76,27.76,6.44,6.08,17.03,12.38,33.24,12.38h.02c4.7.01,9.87-.52,15.55-1.74,16.61-3.56,35.47-8.98,49.12-28.41,12.9-18.37,19.18-46.04,20.31-89.63.14-1.23.28-2.41.41-3.53.09-.75.18-1.53.27-2.3l3.04.27.78.05c16.92.77,37.61-2.82,50.31-8.72,10.04-4.66,42.2-21.64,34.63-44.57ZM391.09,299.43c-10.08,4.67-26.15,7.63-40.07,7.63-6.68,0-12.85-.68-17.65-2.18-2.27,20.89-7.1,59.85-9.92,76.16-5.26,30.53-18.86,44.37-50.19,51.09-5.33,1.14-10.18,1.65-14.58,1.65-30.02,0-39.52-23.76-43.41-33.48-4.74-11.88-6.39-50.85-6.06-90.41-10.83,9.79-24.38,14.85-39.78,14.85-6.33,0-12.97-.86-19.86-2.58-1.98-.5-19.33-5.16-19.1-16.25.21-10.16,14.7-13.15,20.15-14.27,19.17-3.94,20.41-5.52,26.37-13.08,1.21-1.53,2.62-3.32,4.35-5.37-.02-.22-.05-.44-.06-.67-8.6-.23-17.01-2.52-24.66-6.63-5.18,5.51-19.22,20.68-34.27,38.78-9.05,10.89-17.76,14.09-24.86,14.09-2.89,0-5.52-.53-7.8-1.29-19.46-6.49-37.96-38.05-54.98-93.81-12.93-42.37-21.12-86.6-21.84-100.98-2.14-42.74,8.89-72.99,32.78-89.92,42.77-30.3,111.89-7.03,126.96-1.38,14.88-10.14,32.84-15.12,53.62-14.78,11.33.19,21.74,1.64,31.29,4.02,4.53-2,27.92-9.08,55.61-8.77,40.27.43,73.54,15.96,96.21,44.93,15.3,19.55,5.2,67.14.15,86.69-10.5,40.67-29.98,84.26-53.65,120.32,3.58,2.64,14.49,6.99,44.94.71,10.26-2.12,16.43-.25,18.35,5.55v.02c3.7,11.2-16.72,24.1-28.04,29.36Z"/>
    <path class="st1" d="M337.3,258.05c-3.99-4.99-9.47-11.83-13.69-22.07-.65-1.57-2.7-5.25-5.08-9.52-12.97-23.27-39.97-71.69-22.52-96.63,8.02-11.46,23.85-16.06,47.11-13.69-3.09-9.19-10.84-26.23-25.16-43.15-16.61-19.63-46.05-43.19-91.95-43.94-23.3-.38-42.42,6.77-56.78,21.25-22.8,23-28.9,59.35-30.51,78.8,1.06-.59,2.2-1.2,3.44-1.83,5.78-2.93,17.37-8.04,30.04-9.35,21.13-2.19,35.07,7.23,39.25,26.54,11.15,51.55.88,74.36-6.62,91.02-1.39,3.08-2.7,6-3.75,8.81l-.93,2.5c-2.21,5.93-4.25,11.41-5.43,16.26,5.52-1.41,10.12.49,12.62,1.53,6.3,2.61,11.55,8.91,13.71,16.44.35,1.23.61,2.45.77,3.66.19.63.29,1.29.27,1.98-1.45,51.75.59,98.62,4.75,109.01,6.44,16.09,16.21,30.17,43.81,24.26h-.02c26.62-5.71,36.08-15.29,40.52-41.02,3.36-19.47,9.98-74.59,10.91-86.36-1.15-23.47,11.5-28.16,18.55-30.19-.9-1.3-2.09-2.78-3.31-4.31Z"/>
    <path class="st1" d="M349.38,274.57c-.63-.42-1.21-.85-1.74-1.28-.85.3-1.73.55-2.64.8-5.76,1.61-11.2,3.14-10.49,17.76,1.52,1.23,7.96,3.24,20.61,2.65,11.46-.54,23.51-3.05,30.72-6.39h-.01c8.38-3.89,14.29-8.22,17.74-11.45-.09.02-.19.04-.28.06-25.6,5.29-43.74,4.56-53.91-2.15Z"/>
  </g>
  <path class="st0" d="M0,60.23"/>
</svg>