<?xml version="1.0" encoding="UTF-8"?>
<svg id="Camada_1" xmlns="http://www.w3.org/2000/svg" version="1.1" xmlns:cc="http://web.resource.org/cc/" xmlns:dc="http://purl.org/dc/elements/1.1/" xmlns:rdf="http://www.w3.org/1999/02/22-rdf-syntax-ns#" xmlns:svg="http://www.w3.org/2000/svg" viewBox="0 0 110 110">
  <!-- Generator: Adobe Illustrator 29.6.1, SVG Export Plug-In . SVG Version: 2.1.1 Build 9)  -->
  <defs>
    <style>
      .st0 {
        fill: #9e9e9e;
      }
    </style>
  </defs>
  <path class="st0" d="M54.81,0C28.84,0,28.56,10.08,28.56,12.16v12.59h26.75v3.78H17.94C9.99,28.53,0,33.36,0,54.78,0,74.45,7.79,82.06,15.66,82.06h9.34v-13.12c0-5.49,2.72-15.66,15.41-15.66h26.53c3.9,0,14.91-1.7,14.91-14.41V14.66C81.84,11.5,81.3,0,54.81,0ZM40.06,8.47c2.66,0,4.81,2.15,4.81,4.81s-2.15,4.81-4.81,4.81-4.81-2.15-4.81-4.81,2.15-4.81,4.81-4.81Z"/>
  <path class="st0" d="M55.19,110c25.96,0,26.28-10.27,26.28-12.16v-12.59h-26.78v-3.78h37.38c8.01,0,17.94-4.95,17.94-26.25,0-23.32-10.54-27.28-15.66-27.28h-9.34v13.13c0,5.49-2.63,15.66-15.41,15.66h-26.53c-3.89,0-14.91,1.9-14.91,14.41v24.22c0,5.23,3.2,14.66,27.03,14.66ZM69.94,101.53c-2.66,0-4.81-2.15-4.81-4.81s2.15-4.81,4.81-4.81,4.81,2.15,4.81,4.81-2.15,4.81-4.81,4.81Z"/>
</svg>