<?xml version="1.0" encoding="UTF-8"?>
<svg id="Camada_1" xmlns="http://www.w3.org/2000/svg" version="1.1" viewBox="0 0 23 20.46">
  <!-- Generator: Adobe Illustrator 29.6.1, SVG Export Plug-In . SVG Version: 2.1.1 Build 9)  -->
  <defs>
    <style>
      .st0 {
        fill: #9e9e9e;
      }
    </style>
  </defs>
  <circle class="st0" cx="11.5" cy="10.23" r="2.05"/>
  <path class="st0" d="M23,10.23c0-1.61-1.89-3.01-4.83-3.85.74-2.97.48-5.31-.92-6.11-1.4-.81-3.55.14-5.75,2.26C9.3.41,7.15-.53,5.75.27c-1.16.67-1.59,2.37-1.2,4.79.07.43.17.87.28,1.33-2.94.84-4.83,2.24-4.83,3.85s1.89,3,4.83,3.85c-.11.45-.21.9-.28,1.33-.39,2.42.04,4.12,1.2,4.79.34.2.73.3,1.16.3,1.02,0,2.25-.56,3.59-1.65.33-.27.67-.58,1-.9.33.32.67.63,1,.9,1.34,1.09,2.57,1.65,3.59,1.65.43,0,.82-.1,1.16-.3,1.16-.67,1.59-2.37,1.21-4.79-.07-.43-.17-.87-.28-1.33,2.94-.84,4.83-2.24,4.83-3.85ZM16.75,1.14c.9.52,1.1,2.42.45,5-.94-.22-1.97-.38-3.06-.48-.63-.89-1.29-1.7-1.94-2.41,1.52-1.47,2.93-2.27,3.9-2.27.25,0,.47.05.66.16ZM14.71,12.08c-.36.61-.73,1.21-1.11,1.77-.67.05-1.37.08-2.09.08s-1.42-.03-2.09-.08c-.38-.56-.76-1.16-1.11-1.77-.36-.62-.68-1.23-.98-1.85.3-.62.62-1.23.98-1.85.36-.63.74-1.22,1.11-1.77.67-.05,1.37-.08,2.09-.08s1.42.03,2.09.08c.38.55.75,1.14,1.11,1.77.35.61.68,1.23.98,1.85-.29.61-.61,1.22-.98,1.85ZM16.21,11.41c.28.67.52,1.32.72,1.96-.64.14-1.33.27-2.06.36.24-.37.47-.75.7-1.14.23-.39.44-.79.64-1.18ZM11.5,16.51c-.45-.49-.9-1.03-1.34-1.61.44.02.88.03,1.34.03s.9-.01,1.34-.03c-.44.58-.89,1.11-1.34,1.61ZM8.13,13.73c-.73-.09-1.42-.21-2.06-.36.2-.64.44-1.29.72-1.96.2.39.41.79.64,1.18.23.39.46.77.7,1.14ZM6.79,9.06c-.28-.67-.52-1.32-.72-1.96.64-.14,1.33-.27,2.06-.36-.24.37-.47.75-.7,1.14-.23.39-.44.78-.64,1.18ZM11.5,3.96c.44.48.89,1.02,1.34,1.61-.44-.02-.88-.03-1.34-.03s-.9.01-1.34.03c.45-.59.89-1.13,1.34-1.61ZM15.57,7.88c-.23-.39-.46-.77-.7-1.14.73.09,1.42.21,2.06.36-.19.63-.43,1.28-.72,1.96-.2-.39-.42-.79-.64-1.18ZM5.53,4.9c-.31-1.95-.05-3.32.72-3.76.19-.11.41-.16.66-.16.97,0,2.38.8,3.9,2.27-.66.71-1.31,1.52-1.94,2.41-1.09.1-2.12.26-3.06.48-.11-.42-.2-.84-.26-1.23ZM1,10.23c0-1.04,1.54-2.16,4.1-2.89.29.93.67,1.9,1.12,2.89-.45.98-.83,1.95-1.12,2.89-2.55-.73-4.1-1.84-4.1-2.89ZM9.87,18.06c-1.53,1.24-2.85,1.7-3.62,1.26-.77-.44-1.03-1.82-.72-3.76.06-.4.16-.81.26-1.23.94.22,1.97.38,3.06.48.63.88,1.28,1.7,1.94,2.42-.31.3-.62.59-.93.84ZM17.47,15.56c.31,1.95.05,3.32-.72,3.76-.77.44-2.09-.02-3.62-1.26-.31-.25-.62-.54-.93-.84.67-.72,1.32-1.53,1.94-2.41,1.09-.1,2.12-.26,3.06-.48.11.42.2.84.26,1.23ZM17.9,13.12c-.29-.93-.67-1.9-1.12-2.89.46-1,.83-1.97,1.12-2.89,2.56.73,4.1,1.84,4.1,2.89s-1.54,2.16-4.1,2.89Z"/>
</svg>