<?xml version="1.0" encoding="UTF-8"?>
<svg id="Camada_1" xmlns="http://www.w3.org/2000/svg" version="1.1" viewBox="0 0 54 33">
  <!-- Generator: Adobe Illustrator 29.6.1, SVG Export Plug-In . SVG Version: 2.1.1 Build 9)  -->
  <defs>
    <style>
      .st0 {
        fill: #9e9e9e;
        fill-rule: evenodd;
      }
    </style>
  </defs>
  <path class="st0" d="M27,.3c-7.2,0-11.7,3.6-13.5,10.8,2.7-3.6,5.85-4.95,9.45-4.05,2.05.51,3.52,2,5.15,3.65,2.65,2.69,5.71,5.8,12.4,5.8,7.2,0,11.7-3.6,13.5-10.8-2.7,3.6-5.85,4.95-9.45,4.05-2.05-.51-3.52-2-5.15-3.65-2.65-2.69-5.71-5.8-12.4-5.8ZM13.5,16.5c-7.2,0-11.7,3.6-13.5,10.8,2.7-3.6,5.85-4.95,9.45-4.05,2.05.51,3.52,2,5.15,3.65,2.65,2.69,5.71,5.8,12.4,5.8,7.2,0,11.7-3.6,13.5-10.8-2.7,3.6-5.85,4.95-9.45,4.05-2.05-.51-3.52-2-5.15-3.65-2.65-2.69-5.71-5.8-12.4-5.8Z"/>
</svg>