<?xml version="1.0" encoding="UTF-8"?>
<svg id="Camada_1" xmlns="http://www.w3.org/2000/svg" version="1.1" viewBox="0 0 604.92 299.79">
  <!-- Generator: Adobe Illustrator 29.6.1, SVG Export Plug-In . SVG Version: 2.1.1 Build 9)  -->
  <defs>
    <style>
      .st0 {
        fill: #1d1d1b;
      }
    </style>
  </defs>
  <path class="st0" d="M604.92,156.77c-152.37,16.73-305.39,34.95-458.97,36.07-14.7-.1-29.42-.41-44.1-1.71-22.34-1.97-44.5-5.1-65.62-13.75-14.32-6.04-29.82-15.21-34.8-31.07-7.12-24.59,13.54-46.31,31.66-59.61,36.28-26.32,79.96-39.85,123.38-48.67,99.11-18.42,235.13-16.67,324.74,33.32,61.2,34.04,95.83,90.12,110.48,157.47,1.85,8.16,3.35,16.39,4.58,24.63,1.07,7.35,1.96,14.73,2.26,22.35.14,4.82.18,10.15-1.19,15.18-1.09,4.35-4.72,8.64-9.8,7.95-1.5-.21-2.67-.53-3.78-1.32-5.84-4.45-9.98-10.56-13.41-16.73-9.67-17.17-17.49-35.44-24.86-53.66-29.05-72.66-54.44-146.57-79.54-220.64,0,0,9.73-1.94,9.73-1.94,3.52,50.48,6.36,100.93,8.13,151.51,1.06,38.05,2.49,76.12-.49,114.23-.69,6.68-1.31,13.03-3.27,19.67-.56,1.75-1.14,3.51-2.48,5.61-2.05,3.39-6.4,5.26-10.16,3.41-3.95-1.93-6.21-5.27-8.56-8.57-7.24-11.06-12.37-22.59-17.75-34.43-34.96-81.44-62.88-165.58-91.1-249.51,0,0,9.75-1.81,9.75-1.81,3.5,75.56,6.71,151.09,6.49,226.78-.18,15.81-.38,31.76-1.87,47.62-.33,3.23-.72,6.45-1.39,9.83-.78,3.19-1.33,6.96-4.36,9.47-2.48,2.05-6.17,1.53-8.28-.31-3.12-2.62-4.79-5.78-6.78-9.05-3.27-5.73-6.01-11.47-8.71-17.24-18.26-40.27-33.68-81.72-49.3-123.03-17.64-47.22-34.72-94.6-51.43-142.16,0,0,9.71-1.94,9.71-1.94,2.83,50.4,5.13,100.77,6.57,151.24.77,41.13,2.55,82.41-1.25,123.52-.87,5.76-1.19,11.85-4.55,17.16-3.45,4.8-9.11,3.66-12.54-.51-5.93-7.08-9.71-15.7-13.71-23.71C179.68,185.91,149.65,95.9,118.21,6.61c0,0,9.72-1.93,9.72-1.93,4.22,75.69,8.77,151.32,8.36,227.18-.19,12.73-.59,25.41-1.69,38.14-.91,7.29-1.65,24.69-8.37,28.57-6.58,3.47-11.62-4.24-14.51-8.91-6.74-11.2-11.64-22.79-16.78-34.63C61.36,173.26,33.97,89.12,7.03,4.99c32.94,88.46,63.69,178.05,103.52,263.67,2.78,5.55,5.66,11.1,8.88,16.11,1.3,1.9,2.77,4.27,4.5,5.54,0,0-.14-.12-.68-.19-.58-.1-1.4.13-1.72.34-.59.36-.47.48-.25,0,.38-.72.82-2.05,1.14-3.37,1.37-5.67,1.84-11.96,2.3-17.9,3.49-87.87-1.95-176.12-6.75-263.9-.21-5.69,7.66-7.48,9.72-1.93,31.29,88.89,61.24,178.64,99.72,264.72,2.68,5.59,5.45,11.18,8.53,16.27,1.29,2.06,2.59,4.2,4.29,5.73-.02,0-.17-.16-.86-.28-.83-.19-2.22.22-2.74.82-.06.06-.09.1-.09.1,0,0,.08-.12.17-.3.37-.74.79-2.09,1.1-3.41,1.31-5.7,1.83-11.98,2.3-17.93,3.92-87.83-2.04-176.04-6.22-263.81-.25-5.62,7.66-7.45,9.71-1.94,31.79,88.66,62.44,178.02,100.36,264.28,2.62,5.63,5.33,11.25,8.3,16.46,1.27,2.13,2.61,4.52,4.26,6.16-.01.02-.03-.11-.84-.35-.37-.1-1.19-.17-1.82,0-.78.14-1.68.85-1.83,1.12.54-1.04.84-2.46,1.17-4.02,1.11-5.8,1.57-12.08,1.97-18.08,3.35-87.8-1.77-175.9-5.38-263.67-.13-2.76,1.99-5.1,4.75-5.24,2.29-.11,4.3,1.35,4.99,3.43,28.1,83.56,55.95,167.52,90.73,248.56,2.55,5.72,5.17,11.4,7.94,16.96,2.77,5.53,5.68,11.06,8.94,15.91,1.36,1.85,2.64,3.86,4.33,5.05-.04-.01-.23-.11-.67-.13-.44-.03-.99.11-1.28.26-.61.35-.44.37-.29.1,1.68-3.23,2.46-7.63,3.06-11.58,2.14-15.36,2.42-30.92,2.69-46.56.41-50.34-1.94-100.81-4.57-151.11-1.38-25.19-2.92-50.39-4.7-75.53-.2-2.75,1.88-5.15,4.63-5.34,2.32-.17,4.39,1.29,5.1,3.4,8.26,24.64,16.71,49.25,25.28,73.81,21.77,61.05,42.62,122.7,69.43,181.72,2.76,5.69,5.99,11.53,8.94,17.06,3.03,5.45,6.41,10.37,10.69,13.62,0,0-1.16-.65-1.16-.65.11.04.14.04.02.02-.11-.02-.39,0-.69.08-.3.09-.56.27-.66.36-.11.1-.09.11-.04.02.11-.17.33-.66.5-1.26.17-.6.32-1.3.43-2.05,1.16-10.15-.38-20.91-1.79-31.23-1.06-7.1-2.34-14.23-3.84-21.23-1.1-4.79-2.55-10.98-3.81-15.76-28.93-113.27-115.64-161.47-225.61-175.48-83.68-10.31-177.52-6.06-257.24,22.65-20.15,7.51-39.56,16.97-56.88,29.66-10.96,8.02-21.49,18.08-26.74,30.52-14.5,36.46,43.03,49.69,68.94,53.46,26.7,3.8,54.24,4.18,81.27,4.88,147.84.04,295.2-13.77,442.44-26.85h0Z"/>
</svg>