<?xml version="1.0" encoding="UTF-8"?>
<svg id="Camada_1" xmlns="http://www.w3.org/2000/svg" version="1.1" viewBox="0 0 1080 549.75">
  <!-- Generator: Adobe Illustrator 29.6.1, SVG Export Plug-In . SVG Version: 2.1.1 Build 9)  -->
  <defs>
    <style>
      .st0 {
        fill: #035c36;
      }

      .st1 {
        fill: #fdf9e8;
      }

      .st2 {
        fill: #f19429;
      }
    </style>
  </defs>
  <rect class="st1" width="1080" height="549.75"/>
  <g id="Camada_11" data-name="Camada_1">
    <g>
      <g>
        <path class="st0" d="M227.36,256.61c0,13-4.96,24.81-11.63,36.1-9.75,16.43-21.56,31.31-33.71,46.02-4.79,5.99-9.92,11.63-14.89,17.45-.34.34-.68.86-1.03,1.2-3.76,4.28-7.36,4.11-10.95-.17-6.84-8.04-13.69-16.08-20.36-24.3-10.44-12.83-20.53-25.84-28.92-40.21-4.62-7.87-8.73-15.91-10.61-24.98-3.76-19.68.86-37.3,12.83-53.04,9.58-12.49,22.76-20.19,37.98-23.61,22.24-5.13,41.92.68,58.86,15.23,11.63,9.92,18.65,22.93,21.56,37.98.51,4.28,1.03,8.04.86,12.32ZM160.98,212.64c-22.93-.51-45.17,18.48-45.17,44.31s20.7,43.8,45,43.63c24.3,0,44.66-20.19,44.66-43.97s-22.41-44.66-44.48-43.97Z"/>
        <path class="st0" d="M177.92,262.08v-20.19c0-1.71.34-3.76-1.88-4.45-2.05-.68-3.59.51-4.79,2.05-4.62,6.33-5.82,13.52-5.13,21.04,0,1.88,1.54,3.08,3.08,4.11,1.37,1.03,1.88,2.22,1.88,3.76v17.62c0,5.82-1.03,3.25-3.08,3.76-4.79.86-9.41.86-14.2,0-1.88-.34-2.91-1.2-2.74-3.08,0-6.67,0-13.17-.51-19.85,0-1.71.34-3.25,1.71-4.45,2.74-2.4,3.76-5.65,3.76-9.24v-11.12c0-1.2.34-2.74-1.54-2.74s-1.71,1.54-1.71,2.91v9.75c0,1.37,0,3.08-1.88,3.08s-1.71-1.71-1.71-3.08v-10.09c0-1.2,0-2.74-1.71-2.74s-1.37,1.54-1.37,2.57v10.09c0,1.37,0,2.91-1.88,3.08-1.88,0-2.05-1.54-2.05-3.08v-10.09c0-1.03,0-2.57-1.37-2.57-1.71-.17-1.71,1.37-1.71,2.57v12.66c0,3.25,1.2,5.99,3.59,8.21,1.54,1.37,2.05,3.25,1.88,5.3,0,4.96-.34,9.92-.51,14.89,0,.86,0,1.88-.51,2.4-1.03.68-1.71-.34-2.4-.86-13.52-9.24-18.14-27.2-11.12-42.09,10.27-21.56,39.69-26.52,56.46-9.41,14.71,14.89,12.15,39.87-5.13,51.67-.68.51-1.37,1.37-2.22.68-.68-.51-.34-1.37-.34-2.05-.68-7.01-.68-14.03-.68-21.04h-.17Z"/>
      </g>
      <g>
        <path class="st2" d="M270.48,304.51v-74.77h56.46v13.86h-39.18v60.74h-17.28v.17ZM286.39,277.31v-13.86h35.93v13.86s-35.93,0-35.93,0Z"/>
        <path class="st2" d="M363.39,305.37c-6.16,0-11.46-1.2-16.25-3.76s-8.38-5.99-11.12-10.44-4.11-9.58-4.11-15.23,1.37-10.95,4.11-15.23c2.74-4.45,6.5-7.87,11.12-10.44,4.79-2.57,10.09-3.76,16.25-3.76s11.46,1.2,16.25,3.76,8.55,5.99,11.12,10.44c2.74,4.45,4.11,9.58,4.11,15.4s-1.37,10.78-4.11,15.23c-2.74,4.45-6.5,7.87-11.12,10.44s-10.27,3.59-16.25,3.59ZM363.39,291.68c2.74,0,5.3-.68,7.53-1.88,2.22-1.2,3.94-3.08,5.3-5.48,1.2-2.4,1.88-5.13,1.88-8.55s-.68-6.16-1.88-8.55c-1.2-2.4-3.08-4.11-5.3-5.48-2.22-1.2-4.62-1.88-7.53-1.88s-5.3.68-7.53,1.88c-2.22,1.2-3.94,3.08-5.3,5.48s-2.05,5.13-2.05,8.55.68,6.16,2.05,8.55,3.08,4.28,5.3,5.48,4.62,1.88,7.53,1.88Z"/>
        <path class="st2" d="M433.19,305.37c-6.16,0-11.46-1.2-16.25-3.76s-8.38-5.99-11.12-10.44-4.11-9.58-4.11-15.23,1.37-10.95,4.11-15.23c2.74-4.45,6.5-7.87,11.12-10.44,4.79-2.57,10.09-3.76,16.25-3.76s11.46,1.2,16.25,3.76,8.55,5.99,11.12,10.44c2.74,4.45,4.11,9.58,4.11,15.4s-1.37,10.78-4.11,15.23c-2.74,4.45-6.5,7.87-11.12,10.44s-10.27,3.59-16.25,3.59ZM433.19,291.68c2.74,0,5.3-.68,7.53-1.88,2.22-1.2,3.94-3.08,5.3-5.48,1.2-2.4,1.88-5.13,1.88-8.55s-.68-6.16-1.88-8.55c-1.2-2.4-3.08-4.11-5.3-5.48-2.22-1.2-4.62-1.88-7.53-1.88s-5.3.68-7.53,1.88c-2.22,1.2-3.94,3.08-5.3,5.48s-2.05,5.13-2.05,8.55.68,6.16,2.05,8.55,3.08,4.28,5.3,5.48,4.79,1.88,7.53,1.88Z"/>
        <path class="st2" d="M500.43,305.37c-5.48,0-10.27-1.2-14.54-3.76-4.28-2.4-7.7-5.82-10.27-10.27s-3.76-9.58-3.76-15.57,1.2-11.29,3.76-15.74,5.99-7.87,10.27-10.27,9.24-3.59,14.54-3.59,9.07,1.03,12.66,3.25c3.59,2.05,6.5,5.3,8.38,9.75,2.05,4.28,2.91,9.92,2.91,16.6s-1.03,12.15-2.91,16.6-4.62,7.7-8.21,9.75c-3.42,2.22-7.87,3.25-12.83,3.25h0ZM503.34,291.68c2.74,0,5.13-.68,7.36-1.88s3.94-3.08,5.3-5.48,2.05-5.13,2.05-8.55-.68-6.16-2.05-8.55-3.08-4.11-5.3-5.48c-2.22-1.2-4.62-1.88-7.36-1.88s-5.3.68-7.53,1.88-3.94,3.08-5.3,5.48-2.05,5.13-2.05,8.55.68,6.16,2.05,8.55,3.08,4.28,5.3,5.48,4.62,1.88,7.53,1.88ZM518.4,304.51v-11.81l.34-17.11-1.03-16.94v-33.36h16.6v79.22h-15.91,0Z"/>
        <path class="st0" d="M586.49,305.2c-5.65,0-10.78-1.03-15.57-2.91-4.79-1.88-8.9-4.62-12.32-7.87-3.42-3.42-6.16-7.36-8.21-11.98-1.88-4.62-2.91-9.75-2.91-15.23s1.03-10.61,2.91-15.23,4.62-8.73,8.21-11.98,7.7-5.99,12.49-7.87,9.92-2.91,15.57-2.91,10.44.86,15.23,2.74,8.73,4.62,11.98,8.21l-4.96,4.96c-3.08-3.08-6.5-5.3-10.09-6.84-3.76-1.37-7.7-2.05-11.98-2.05s-8.73.68-12.49,2.22c-3.76,1.54-7.19,3.76-10.09,6.5-2.91,2.74-5.13,6.16-6.67,9.75s-2.4,7.87-2.4,12.32.86,8.55,2.4,12.32,3.76,7.01,6.67,9.75c2.91,2.74,6.16,4.96,10.09,6.5s8.04,2.22,12.49,2.22,8.21-.68,11.98-2.05,7.01-3.76,10.09-6.84l4.96,4.96c-3.25,3.59-7.36,6.33-11.98,8.21-4.79,2.05-9.92,3.08-15.4,3.08h0Z"/>
        <path class="st0" d="M643.13,305.03c-4.28,0-7.87-.68-10.95-2.05s-5.48-3.25-7.01-5.82c-1.71-2.4-2.4-5.3-2.4-8.55s.68-5.65,2.05-7.87c1.37-2.4,3.59-4.28,6.84-5.82,3.08-1.54,7.36-2.22,12.83-2.22h19.33v5.65h-19.16c-5.48,0-9.24,1.03-11.29,2.91s-3.08,4.28-3.08,7.19,1.2,5.82,3.76,7.7,5.99,2.91,10.44,2.91,7.87-1.03,11.12-2.91c3.08-1.88,5.3-4.79,6.84-8.55l1.71,5.3c-1.37,3.76-3.94,6.67-7.36,8.9-3.94,2.22-8.38,3.25-13.69,3.25h0ZM662.46,304.51v-12.32l-.34-2.05v-20.7c0-4.79-1.37-8.38-3.94-10.95-2.74-2.57-6.67-3.76-11.98-3.76s-7.01.68-10.27,1.88-5.99,2.74-8.38,4.79l-3.42-5.65c2.91-2.4,6.33-4.28,10.27-5.65s8.21-2.05,12.66-2.05c7.19,0,12.83,1.88,16.77,5.3,3.94,3.59,5.99,9.07,5.99,16.43v34.73s-7.36,0-7.36,0Z"/>
        <path class="st0" d="M690.18,304.51v-55.95h7.19v15.23l-1.2-2.74c1.71-4.11,4.45-7.19,8.21-9.58,3.76-2.4,8.38-3.42,13.52-3.42s10.09,1.37,14.03,4.11c3.76,2.74,6.33,6.84,7.53,12.32l-2.91-1.2c1.71-4.62,4.62-8.21,8.73-11.12,4.11-2.74,9.24-4.28,15.06-4.28s8.55.86,11.98,2.57,5.99,4.45,7.87,7.87c1.88,3.59,2.91,8.04,2.91,13.52v32.51h-7.53v-31.82c0-5.99-1.37-10.44-4.28-13.35-2.74-3.08-6.84-4.62-11.98-4.62s-7.19.86-9.92,2.4c-2.74,1.54-4.96,3.94-6.5,7.01s-2.22,6.67-2.22,10.95v29.43h-7.53v-31.82c0-5.99-1.37-10.44-4.28-13.35-2.91-3.08-6.84-4.62-11.98-4.62s-7.01.86-9.92,2.4-4.96,3.94-6.5,7.01-2.22,6.67-2.22,10.95v29.43h-8.04v.17h0Z"/>
        <path class="st0" d="M803.44,325.22v-76.65h7.19v16.94l-.68,11.12,1.03,11.29v37.3h-7.53ZM832.36,305.03c-4.79,0-9.24-1.2-13.17-3.42-3.94-2.22-7.01-5.48-9.41-9.75s-3.42-9.41-3.42-15.57,1.2-11.29,3.42-15.57,5.3-7.53,9.24-9.58c3.94-2.22,8.38-3.25,13.17-3.25s10.09,1.2,14.37,3.59,7.53,5.65,9.92,10.09c2.4,4.28,3.59,9.24,3.59,14.89s-1.2,10.61-3.59,14.89-5.82,7.53-9.92,10.09c-4.11,2.4-8.9,3.59-14.2,3.59ZM831.84,298.35c3.94,0,7.53-.86,10.61-2.74,3.08-1.88,5.65-4.45,7.53-7.7s2.74-7.19,2.74-11.46-.86-8.21-2.74-11.46-4.28-5.82-7.53-7.7c-3.08-1.88-6.67-2.74-10.61-2.74s-7.53.86-10.78,2.74-5.65,4.45-7.53,7.7-2.74,7.01-2.74,11.46.86,8.21,2.74,11.46,4.28,5.82,7.53,7.7c3.25,1.71,6.84,2.74,10.78,2.74Z"/>
        <path class="st0" d="M898.91,305.03c-4.79,0-8.9-.86-12.49-2.74-3.59-1.71-6.33-4.45-8.21-8.04-1.88-3.59-2.91-8.04-2.91-13.35v-32.51h7.53v31.65c0,5.99,1.54,10.44,4.45,13.52s7.01,4.62,12.49,4.62,7.36-.86,10.27-2.4,5.13-3.94,6.67-7.01,2.22-6.67,2.22-10.95v-29.26h7.53v55.95h-7.19v-15.4l1.2,2.74c-1.71,4.11-4.62,7.36-8.21,9.58-3.94,2.4-8.38,3.59-13.35,3.59Z"/>
        <path class="st0" d="M962.56,305.03c-4.62,0-9.07-.68-13.17-2.05-4.11-1.37-7.36-2.91-9.75-4.96l3.42-5.99c2.22,1.71,5.13,3.25,8.73,4.45s7.36,1.88,11.12,1.88,9.24-.86,11.46-2.57c2.4-1.71,3.59-3.94,3.59-6.67s-.68-3.76-2.05-4.79c-1.37-1.2-3.08-2.05-5.13-2.74s-4.45-1.2-7.19-1.54c-2.57-.34-5.3-.86-7.87-1.54-2.57-.51-4.96-1.37-7.01-2.57-2.05-1.03-3.94-2.57-5.13-4.45-1.37-1.88-2.05-4.45-2.05-7.7s.86-5.82,2.57-8.21,4.28-4.28,7.53-5.65,7.36-2.05,12.15-2.05,7.19.51,10.95,1.37c3.59,1.03,6.67,2.22,8.9,3.76l-3.25,6.16c-2.57-1.71-5.13-2.91-8.04-3.76-2.91-.68-5.65-1.2-8.55-1.2-5.13,0-8.73.86-11.12,2.57s-3.59,3.94-3.59,6.67.68,3.76,2.05,4.96c1.37,1.2,3.08,2.22,5.3,2.91,2.22.68,4.62,1.2,7.19,1.71,2.57.34,5.13,1.03,7.87,1.54,2.57.68,4.96,1.37,7.19,2.4s3.94,2.57,5.3,4.45,2.05,4.28,2.05,7.36-.86,6.16-2.74,8.55-4.45,4.28-7.87,5.48c-3.76,1.54-8.04,2.22-12.83,2.22h0Z"/>
      </g>
    </g>
  </g>
</svg>