<?xml version="1.0" encoding="UTF-8"?>
<svg id="Camada_1" xmlns="http://www.w3.org/2000/svg" version="1.1" viewBox="0 0 1080 549.75">
  <!-- Generator: Adobe Illustrator 29.6.1, SVG Export Plug-In . SVG Version: 2.1.1 Build 9)  -->
  <defs>
    <style>
      .st0 {
        fill: #035c36;
      }

      .st1 {
        fill: #fdf9e8;
      }

      .st2 {
        fill: #f19429;
      }
    </style>
  </defs>
  <rect class="st1" width="1080" height="549.75"/>
  <g id="Camada_11">
    <g>
      <g>
        <path class="st0" d="M281.36,259.76c0,10.75-4.1,20.53-9.62,29.87-8.07,13.59-17.84,25.9-27.89,38.07-3.96,4.96-8.21,9.62-12.32,14.44-.28.28-.56.71-.85.99-3.11,3.54-6.09,3.4-9.06-.14-5.66-6.65-11.33-13.3-16.84-20.1-8.64-10.61-16.98-21.38-23.93-33.27-3.82-6.51-7.22-13.16-8.78-20.67-3.11-16.28.71-30.86,10.61-43.88,7.93-10.33,18.83-16.7,31.42-19.53,18.4-4.24,34.68.56,48.69,12.6,9.62,8.21,15.43,18.97,17.84,31.42.42,3.54.85,6.65.71,10.19h0ZM226.44,223.39c-18.97-.42-37.37,15.29-37.37,36.66s17.13,36.24,37.23,36.09c20.1,0,36.95-16.7,36.95-36.38s-18.54-36.95-36.8-36.38h0Z"/>
        <path class="st0" d="M240.45,264.29v-16.7c0-1.41.28-3.11-1.56-3.68-1.7-.56-2.97.42-3.96,1.7-3.82,5.24-4.81,11.19-4.24,17.41,0,1.56,1.27,2.55,2.55,3.4,1.13.85,1.56,1.84,1.56,3.11v14.58c0,4.81-.85,2.69-2.55,3.11-3.96.71-7.78.71-11.75,0-1.56-.28-2.41-.99-2.27-2.55,0-5.52,0-10.9-.42-16.42,0-1.41.28-2.69,1.41-3.68,2.27-1.99,3.11-4.67,3.11-7.64v-9.2c0-.99.28-2.27-1.27-2.27s-1.41,1.27-1.41,2.41v8.07c0,1.13,0,2.55-1.56,2.55s-1.41-1.41-1.41-2.55v-8.35c0-.99,0-2.27-1.41-2.27s-1.13,1.27-1.13,2.13v8.35c0,1.13,0,2.41-1.56,2.55-1.56,0-1.7-1.27-1.7-2.55v-8.35c0-.85,0-2.13-1.13-2.13-1.41-.14-1.41,1.13-1.41,2.13v10.47c0,2.69.99,4.96,2.97,6.79,1.27,1.13,1.7,2.69,1.56,4.38,0,4.1-.28,8.21-.42,12.32,0,.71,0,1.56-.42,1.99-.85.56-1.41-.28-1.99-.71-11.19-7.64-15.01-22.5-9.2-34.82,8.5-17.84,32.84-21.94,46.71-7.78,12.17,12.32,10.05,32.98-4.24,42.75-.56.42-1.13,1.13-1.84.56-.56-.42-.28-1.13-.28-1.7-.56-5.8-.56-11.61-.56-17.41h-.14l-.02.02Z"/>
      </g>
      <g>
        <path class="st2" d="M317.03,299.39v-61.86h46.71v11.47h-32.41v50.25h-14.3v.14h0ZM330.19,276.89v-11.47h29.72v11.47h-29.72Z"/>
        <path class="st2" d="M393.89,300.1c-5.1,0-9.48-.99-13.44-3.11s-6.93-4.96-9.2-8.64-3.4-7.93-3.4-12.6,1.13-9.06,3.4-12.6c2.27-3.68,5.38-6.51,9.2-8.64,3.96-2.13,8.35-3.11,13.44-3.11s9.48.99,13.44,3.11,7.07,4.96,9.2,8.64c2.27,3.68,3.4,7.93,3.4,12.74s-1.13,8.92-3.4,12.6-5.38,6.51-9.2,8.64-8.5,2.97-13.44,2.97h0ZM393.89,288.78c2.27,0,4.38-.56,6.23-1.56,1.84-.99,3.26-2.55,4.38-4.53.99-1.99,1.56-4.24,1.56-7.07s-.56-5.1-1.56-7.07c-.99-1.99-2.55-3.4-4.38-4.53-1.84-.99-3.82-1.56-6.23-1.56s-4.38.56-6.23,1.56c-1.84.99-3.26,2.55-4.38,4.53s-1.7,4.24-1.7,7.07.56,5.1,1.7,7.07,2.55,3.54,4.38,4.53,3.82,1.56,6.23,1.56Z"/>
        <path class="st2" d="M451.64,300.1c-5.1,0-9.48-.99-13.44-3.11s-6.93-4.96-9.2-8.64-3.4-7.93-3.4-12.6,1.13-9.06,3.4-12.6c2.27-3.68,5.38-6.51,9.2-8.64,3.96-2.13,8.35-3.11,13.44-3.11s9.48.99,13.44,3.11,7.07,4.96,9.2,8.64c2.27,3.68,3.4,7.93,3.4,12.74s-1.13,8.92-3.4,12.6-5.38,6.51-9.2,8.64-8.5,2.97-13.44,2.97h0ZM451.64,288.78c2.27,0,4.38-.56,6.23-1.56,1.84-.99,3.26-2.55,4.38-4.53.99-1.99,1.56-4.24,1.56-7.07s-.56-5.1-1.56-7.07c-.99-1.99-2.55-3.4-4.38-4.53-1.84-.99-3.82-1.56-6.23-1.56s-4.38.56-6.23,1.56c-1.84.99-3.26,2.55-4.38,4.53s-1.7,4.24-1.7,7.07.56,5.1,1.7,7.07,2.55,3.54,4.38,4.53,3.96,1.56,6.23,1.56Z"/>
        <path class="st2" d="M507.27,300.1c-4.53,0-8.5-.99-12.03-3.11-3.54-1.99-6.37-4.81-8.5-8.5s-3.11-7.93-3.11-12.88.99-9.34,3.11-13.02,4.96-6.51,8.5-8.5,7.64-2.97,12.03-2.97,7.5.85,10.47,2.69c2.97,1.7,5.38,4.38,6.93,8.07,1.7,3.54,2.41,8.21,2.41,13.73s-.85,10.05-2.41,13.73-3.82,6.37-6.79,8.07c-2.83,1.84-6.51,2.69-10.61,2.69h0ZM509.67,288.78c2.27,0,4.24-.56,6.09-1.56,1.84-.99,3.26-2.55,4.38-4.53s1.7-4.24,1.7-7.07-.56-5.1-1.7-7.07-2.55-3.4-4.38-4.53c-1.84-.99-3.82-1.56-6.09-1.56s-4.38.56-6.23,1.56-3.26,2.55-4.38,4.53-1.7,4.24-1.7,7.07.56,5.1,1.7,7.07,2.55,3.54,4.38,4.53,3.82,1.56,6.23,1.56h0ZM522.13,299.39v-9.77l.28-14.16-.85-14.01v-27.6h13.73v65.54h-13.16Z"/>
        <path class="st0" d="M578.46,299.96c-4.67,0-8.92-.85-12.88-2.41-3.96-1.56-7.36-3.82-10.19-6.51-2.83-2.83-5.1-6.09-6.79-9.91-1.56-3.82-2.41-8.07-2.41-12.6s.85-8.78,2.41-12.6,3.82-7.22,6.79-9.91,6.37-4.96,10.33-6.51,8.21-2.41,12.88-2.41,8.64.71,12.6,2.27,7.22,3.82,9.91,6.79l-4.1,4.1c-2.55-2.55-5.38-4.38-8.35-5.66-3.11-1.13-6.37-1.7-9.91-1.7s-7.22.56-10.33,1.84c-3.11,1.27-5.95,3.11-8.35,5.38-2.41,2.27-4.24,5.1-5.52,8.07s-1.99,6.51-1.99,10.19.71,7.07,1.99,10.19,3.11,5.8,5.52,8.07,5.1,4.1,8.35,5.38,6.65,1.84,10.33,1.84,6.79-.56,9.91-1.7,5.8-3.11,8.35-5.66l4.1,4.1c-2.69,2.97-6.09,5.24-9.91,6.79-3.96,1.7-8.21,2.55-12.74,2.55h0v.02Z"/>
        <path class="st0" d="M625.32,299.82c-3.54,0-6.51-.56-9.06-1.7s-4.53-2.69-5.8-4.81c-1.41-1.99-1.99-4.38-1.99-7.07s.56-4.67,1.7-6.51c1.13-1.99,2.97-3.54,5.66-4.81,2.55-1.27,6.09-1.84,10.61-1.84h15.99v4.67h-15.85c-4.53,0-7.64.85-9.34,2.41s-2.55,3.54-2.55,5.95.99,4.81,3.11,6.37,4.96,2.41,8.64,2.41,6.51-.85,9.2-2.41c2.55-1.56,4.38-3.96,5.66-7.07l1.41,4.38c-1.13,3.11-3.26,5.52-6.09,7.36-3.26,1.84-6.93,2.69-11.33,2.69h0l.02-.02ZM641.31,299.39v-10.19l-.28-1.7v-17.13c0-3.96-1.13-6.93-3.26-9.06-2.27-2.13-5.52-3.11-9.91-3.11s-5.8.56-8.5,1.56c-2.7.99-4.96,2.27-6.93,3.96l-2.83-4.67c2.41-1.99,5.24-3.54,8.5-4.67s6.79-1.7,10.47-1.7c5.95,0,10.61,1.56,13.87,4.38,3.26,2.97,4.96,7.5,4.96,13.59v28.73h-6.09Z"/>
        <path class="st0" d="M664.24,299.39v-46.29h5.95v12.6l-.99-2.27c1.41-3.4,3.68-5.95,6.79-7.93,3.11-1.99,6.93-2.83,11.19-2.83s8.35,1.13,11.61,3.4c3.11,2.27,5.24,5.66,6.23,10.19l-2.41-.99c1.41-3.82,3.82-6.79,7.22-9.2,3.4-2.27,7.64-3.54,12.46-3.54s7.07.71,9.91,2.13,4.96,3.68,6.51,6.51c1.56,2.97,2.41,6.65,2.41,11.19v26.9h-6.23v-26.32c0-4.96-1.13-8.64-3.54-11.04-2.27-2.55-5.66-3.82-9.91-3.82s-5.95.71-8.21,1.99c-2.27,1.27-4.1,3.26-5.38,5.8s-1.84,5.52-1.84,9.06v24.35h-6.23v-26.32c0-4.96-1.13-8.64-3.54-11.04-2.41-2.55-5.66-3.82-9.91-3.82s-5.8.71-8.21,1.99c-2.41,1.27-4.1,3.26-5.38,5.8s-1.84,5.52-1.84,9.06v24.35h-6.65v.14h-.02Z"/>
        <path class="st0" d="M757.94,316.52v-63.41h5.95v14.01l-.56,9.2.85,9.34v30.86h-6.24ZM781.87,299.82c-3.96,0-7.64-.99-10.9-2.83-3.26-1.84-5.8-4.53-7.78-8.07s-2.83-7.78-2.83-12.88.99-9.34,2.83-12.88,4.38-6.23,7.64-7.93c3.26-1.84,6.93-2.69,10.9-2.69s8.35.99,11.89,2.97,6.23,4.67,8.21,8.35c1.99,3.54,2.97,7.64,2.97,12.32s-.99,8.78-2.97,12.32-4.81,6.23-8.21,8.35c-3.4,1.99-7.36,2.97-11.75,2.97ZM781.44,294.3c3.26,0,6.23-.71,8.78-2.27,2.55-1.56,4.67-3.68,6.23-6.37s2.27-5.95,2.27-9.48-.71-6.79-2.27-9.48-3.54-4.81-6.23-6.37c-2.55-1.56-5.52-2.27-8.78-2.27s-6.23.71-8.92,2.27-4.67,3.68-6.23,6.37-2.27,5.8-2.27,9.48.71,6.79,2.27,9.48,3.54,4.81,6.23,6.37c2.69,1.41,5.66,2.27,8.92,2.27Z"/>
        <path class="st0" d="M836.93,299.82c-3.96,0-7.36-.71-10.33-2.27-2.97-1.41-5.24-3.68-6.79-6.65s-2.41-6.65-2.41-11.04v-26.9h6.23v26.18c0,4.96,1.27,8.64,3.68,11.19s5.8,3.82,10.33,3.82,6.09-.71,8.5-1.99,4.24-3.26,5.52-5.8,1.84-5.52,1.84-9.06v-24.21h6.23v46.29h-5.95v-12.74l.99,2.27c-1.41,3.4-3.82,6.09-6.79,7.93-3.26,1.99-6.93,2.97-11.04,2.97h0Z"/>
        <path class="st0" d="M889.58,299.82c-3.82,0-7.5-.56-10.9-1.7-3.4-1.13-6.09-2.41-8.07-4.1l2.83-4.96c1.84,1.41,4.24,2.69,7.22,3.68s6.09,1.56,9.2,1.56,7.64-.71,9.48-2.13c1.99-1.41,2.97-3.26,2.97-5.52s-.56-3.11-1.7-3.96c-1.13-.99-2.55-1.7-4.24-2.27s-3.68-.99-5.95-1.27c-2.13-.28-4.38-.71-6.51-1.27-2.13-.42-4.1-1.13-5.8-2.13-1.7-.85-3.26-2.13-4.24-3.68-1.13-1.56-1.7-3.68-1.7-6.37s.71-4.81,2.13-6.79,3.54-3.54,6.23-4.67,6.09-1.7,10.05-1.7,5.95.42,9.06,1.13c2.97.85,5.52,1.84,7.36,3.11l-2.69,5.1c-2.13-1.41-4.24-2.41-6.65-3.11-2.41-.56-4.67-.99-7.07-.99-4.24,0-7.22.71-9.2,2.13-1.98,1.41-2.97,3.26-2.97,5.52s.56,3.11,1.7,4.1c1.13.99,2.55,1.84,4.38,2.41,1.84.56,3.82.99,5.95,1.41,2.13.28,4.24.85,6.51,1.27,2.13.56,4.1,1.13,5.95,1.99s3.26,2.13,4.38,3.68,1.7,3.54,1.7,6.09-.71,5.1-2.27,7.07-3.68,3.54-6.51,4.53c-3.11,1.27-6.65,1.84-10.61,1.84h-.02Z"/>
      </g>
    </g>
  </g>
</svg>